<svg width="174" height="28" viewBox="0 0 174 28" fill="none" xmlns="http://www.w3.org/2000/svg">
<path d="M5.096 21C4.77867 21 4.52667 20.9067 4.34 20.72C4.15333 20.5333 4.04133 20.3187 4.004 20.076L0.952 2.184C0.933333 2.14667 0.924 2.10933 0.924 2.072C0.924 2.03467 0.924 2.00667 0.924 1.988C0.924 1.83867 0.98 1.708 1.092 1.596C1.22267 1.46533 1.36267 1.4 1.512 1.4H4.984C5.50667 1.4 5.796 1.60533 5.852 2.016L7.672 12.964L9.688 6.496C9.744 6.34667 9.83733 6.188 9.968 6.02C10.0987 5.83333 10.3133 5.74 10.612 5.74H12.628C12.9453 5.74 13.1693 5.83333 13.3 6.02C13.4307 6.188 13.5147 6.34667 13.552 6.496L15.568 12.936L17.388 2.016C17.444 1.60533 17.7333 1.4 18.256 1.4H21.728C21.896 1.4 22.036 1.46533 22.148 1.596C22.26 1.708 22.316 1.83867 22.316 1.988C22.316 2.00667 22.316 2.03467 22.316 2.072C22.316 2.10933 22.316 2.14667 22.316 2.184L19.264 20.076C19.2267 20.3187 19.1147 20.5333 18.928 20.72C18.7413 20.9067 18.4893 21 18.172 21H15.512C15.1947 21 14.952 20.916 14.784 20.748C14.616 20.58 14.504 20.4213 14.448 20.272L11.62 12.264L8.792 20.272C8.736 20.4213 8.624 20.58 8.456 20.748C8.30667 20.916 8.07333 21 7.756 21H5.096ZM25.5942 21C25.3889 21 25.2209 20.9347 25.0902 20.804C24.9595 20.6733 24.8942 20.5053 24.8942 20.3V7.14C24.8942 6.93467 24.9595 6.76667 25.0902 6.636C25.2209 6.50533 25.3889 6.44 25.5942 6.44H28.8982C29.0849 6.44 29.2435 6.50533 29.3742 6.636C29.5235 6.76667 29.5982 6.93467 29.5982 7.14V20.3C29.5982 20.5053 29.5235 20.6733 29.3742 20.804C29.2435 20.9347 29.0849 21 28.8982 21H25.5942ZM25.5662 4.34C25.3609 4.34 25.1929 4.27467 25.0622 4.144C24.9315 4.01333 24.8662 3.84533 24.8662 3.64V1.148C24.8662 0.942666 24.9315 0.774666 25.0622 0.643998C25.1929 0.494666 25.3609 0.42 25.5662 0.42H28.8982C29.1035 0.42 29.2715 0.494666 29.4022 0.643998C29.5515 0.774666 29.6262 0.942666 29.6262 1.148V3.64C29.6262 3.84533 29.5515 4.01333 29.4022 4.144C29.2715 4.27467 29.1035 4.34 28.8982 4.34H25.5662ZM33.5786 21C33.3732 21 33.2052 20.9347 33.0746 20.804C32.9439 20.6733 32.8786 20.5053 32.8786 20.3V1.82C32.8786 1.61467 32.9439 1.44667 33.0746 1.316C33.2052 1.18533 33.3732 1.12 33.5786 1.12H36.8826C37.0879 1.12 37.2559 1.18533 37.3866 1.316C37.5172 1.44667 37.5826 1.61467 37.5826 1.82V20.3C37.5826 20.5053 37.5172 20.6733 37.3866 20.804C37.2559 20.9347 37.0879 21 36.8826 21H33.5786ZM41.5903 21C41.3849 21 41.2169 20.9347 41.0863 20.804C40.9556 20.6733 40.8903 20.5053 40.8903 20.3V1.82C40.8903 1.61467 40.9556 1.44667 41.0863 1.316C41.2169 1.18533 41.3849 1.12 41.5903 1.12H44.8943C45.0996 1.12 45.2676 1.18533 45.3983 1.316C45.5289 1.44667 45.5943 1.61467 45.5943 1.82V20.3C45.5943 20.5053 45.5289 20.6733 45.3983 20.804C45.2676 20.9347 45.0996 21 44.8943 21H41.5903ZM50.559 21C50.3537 21 50.1857 20.9347 50.055 20.804C49.9244 20.6733 49.859 20.5053 49.859 20.3V7.14C49.859 6.93467 49.9244 6.76667 50.055 6.636C50.1857 6.50533 50.3537 6.44 50.559 6.44H53.863C54.0497 6.44 54.2084 6.50533 54.339 6.636C54.4884 6.76667 54.563 6.93467 54.563 7.14V20.3C54.563 20.5053 54.4884 20.6733 54.339 20.804C54.2084 20.9347 54.0497 21 53.863 21H50.559ZM50.531 4.34C50.3257 4.34 50.1577 4.27467 50.027 4.144C49.8964 4.01333 49.831 3.84533 49.831 3.64V1.148C49.831 0.942666 49.8964 0.774666 50.027 0.643998C50.1577 0.494666 50.3257 0.42 50.531 0.42H53.863C54.0684 0.42 54.2364 0.494666 54.367 0.643998C54.5164 0.774666 54.591 0.942666 54.591 1.148V3.64C54.591 3.84533 54.5164 4.01333 54.367 4.144C54.2364 4.27467 54.0684 4.34 53.863 4.34H50.531ZM62.2114 21.28C61.2034 21.28 60.2981 21.0933 59.4954 20.72C58.7114 20.328 58.0861 19.8053 57.6194 19.152C57.1527 18.4987 56.9194 17.7613 56.9194 16.94C56.9194 15.6147 57.4607 14.5693 58.5434 13.804C59.6261 13.02 61.0634 12.488 62.8554 12.208L66.3554 11.676V11.284C66.3554 10.612 66.2154 10.0987 65.9354 9.744C65.6554 9.38933 65.1421 9.212 64.3954 9.212C63.8727 9.212 63.4434 9.31467 63.1074 9.52C62.7901 9.72533 62.5381 10.0053 62.3514 10.36C62.1834 10.6027 61.9501 10.724 61.6514 10.724H58.5154C58.3101 10.724 58.1514 10.668 58.0394 10.556C57.9274 10.4253 57.8807 10.276 57.8994 10.108C57.8994 9.772 58.0207 9.38933 58.2634 8.96C58.5247 8.512 58.9167 8.07333 59.4394 7.644C59.9621 7.21467 60.6341 6.86 61.4554 6.58C62.2767 6.3 63.2661 6.16 64.4234 6.16C65.6367 6.16 66.6727 6.3 67.5314 6.58C68.3901 6.86 69.0807 7.252 69.6034 7.756C70.1447 8.26 70.5461 8.85733 70.8074 9.548C71.0687 10.22 71.1994 10.9667 71.1994 11.788V20.3C71.1994 20.5053 71.1247 20.6733 70.9754 20.804C70.8447 20.9347 70.6861 21 70.4994 21H67.2514C67.0461 21 66.8781 20.9347 66.7474 20.804C66.6167 20.6733 66.5514 20.5053 66.5514 20.3V19.32C66.3087 19.6747 65.9821 20.0013 65.5714 20.3C65.1607 20.5987 64.6754 20.832 64.1154 21C63.5741 21.1867 62.9394 21.28 62.2114 21.28ZM63.5274 18.088C64.0687 18.088 64.5541 17.976 64.9834 17.752C65.4314 17.5093 65.7767 17.1453 66.0194 16.66C66.2807 16.156 66.4114 15.5307 66.4114 14.784V14.392L64.0314 14.812C63.1541 14.9613 62.5101 15.1947 62.0994 15.512C61.7074 15.8107 61.5114 16.1653 61.5114 16.576C61.5114 16.8933 61.6047 17.164 61.7914 17.388C61.9781 17.612 62.2207 17.7893 62.5194 17.92C62.8181 18.032 63.1541 18.088 63.5274 18.088ZM75.059 21C74.8537 21 74.6857 20.9347 74.555 20.804C74.4244 20.6733 74.359 20.5053 74.359 20.3V7.14C74.359 6.93467 74.4244 6.76667 74.555 6.636C74.6857 6.50533 74.8537 6.44 75.059 6.44H78.111C78.3164 6.44 78.4844 6.50533 78.615 6.636C78.7457 6.76667 78.811 6.93467 78.811 7.14V8.092C79.1844 7.588 79.707 7.14933 80.379 6.776C81.051 6.384 81.8444 6.17867 82.759 6.16C84.9057 6.12267 86.3804 6.93467 87.183 8.596C87.6124 7.88667 88.2284 7.308 89.031 6.86C89.8337 6.39333 90.711 6.16 91.663 6.16C92.6337 6.16 93.5017 6.384 94.267 6.832C95.051 7.26133 95.6764 7.93333 96.143 8.848C96.6097 9.744 96.843 10.9107 96.843 12.348V20.3C96.843 20.5053 96.7684 20.6733 96.619 20.804C96.4884 20.9347 96.3297 21 96.143 21H92.895C92.6897 21 92.5124 20.9347 92.363 20.804C92.2324 20.6733 92.167 20.5053 92.167 20.3V12.544C92.167 11.8907 92.0737 11.3773 91.887 11.004C91.7004 10.612 91.4484 10.332 91.131 10.164C90.8137 9.996 90.4497 9.912 90.039 9.912C89.703 9.912 89.367 9.996 89.031 10.164C88.7137 10.332 88.4524 10.612 88.247 11.004C88.0604 11.3773 87.967 11.8907 87.967 12.544V20.3C87.967 20.5053 87.9017 20.6733 87.771 20.804C87.6404 20.9347 87.4724 21 87.267 21H84.019C83.8137 21 83.6457 20.9347 83.515 20.804C83.3844 20.6733 83.319 20.5053 83.319 20.3V12.544C83.319 11.8907 83.2164 11.3773 83.011 11.004C82.8057 10.612 82.5444 10.332 82.227 10.164C81.9097 9.996 81.555 9.912 81.163 9.912C80.827 9.912 80.491 9.996 80.155 10.164C79.8377 10.332 79.5764 10.612 79.371 11.004C79.1844 11.3773 79.091 11.8813 79.091 12.516V20.3C79.091 20.5053 79.0164 20.6733 78.867 20.804C78.7364 20.9347 78.5684 21 78.363 21H75.059ZM106.949 21C106.744 21 106.576 20.9347 106.445 20.804C106.314 20.6733 106.249 20.5053 106.249 20.3V2.1C106.249 1.89467 106.314 1.72667 106.445 1.596C106.576 1.46533 106.744 1.4 106.949 1.4H110.477C110.682 1.4 110.85 1.46533 110.981 1.596C111.112 1.72667 111.177 1.89467 111.177 2.1V8.316L116.357 1.932C116.432 1.82 116.553 1.708 116.721 1.596C116.908 1.46533 117.15 1.4 117.449 1.4H121.481C121.649 1.4 121.789 1.46533 121.901 1.596C122.013 1.708 122.069 1.83867 122.069 1.988C122.069 2.11867 122.032 2.23067 121.957 2.324L115.265 10.78L122.489 20.076C122.564 20.1507 122.601 20.2627 122.601 20.412C122.601 20.5613 122.536 20.7013 122.405 20.832C122.293 20.944 122.162 21 122.013 21H117.841C117.505 21 117.244 20.9253 117.057 20.776C116.889 20.6267 116.777 20.5147 116.721 20.44L111.177 13.524V20.3C111.177 20.5053 111.112 20.6733 110.981 20.804C110.85 20.9347 110.682 21 110.477 21H106.949ZM125.18 21C124.975 21 124.807 20.9347 124.676 20.804C124.545 20.6733 124.48 20.5053 124.48 20.3V7.14C124.48 6.93467 124.545 6.76667 124.676 6.636C124.807 6.50533 124.975 6.44 125.18 6.44H128.484C128.671 6.44 128.829 6.50533 128.96 6.636C129.109 6.76667 129.184 6.93467 129.184 7.14V20.3C129.184 20.5053 129.109 20.6733 128.96 20.804C128.829 20.9347 128.671 21 128.484 21H125.18ZM125.152 4.34C124.947 4.34 124.779 4.27467 124.648 4.144C124.517 4.01333 124.452 3.84533 124.452 3.64V1.148C124.452 0.942666 124.517 0.774666 124.648 0.643998C124.779 0.494666 124.947 0.42 125.152 0.42H128.484C128.689 0.42 128.857 0.494666 128.988 0.643998C129.137 0.774666 129.212 0.942666 129.212 1.148V3.64C129.212 3.84533 129.137 4.01333 128.988 4.144C128.857 4.27467 128.689 4.34 128.484 4.34H125.152ZM134.04 21C133.834 21 133.666 20.9347 133.535 20.804C133.405 20.6733 133.34 20.5053 133.34 20.3V7.14C133.34 6.93467 133.405 6.76667 133.535 6.636C133.666 6.50533 133.834 6.44 134.04 6.44H137.26C137.465 6.44 137.633 6.50533 137.764 6.636C137.894 6.76667 137.96 6.93467 137.96 7.14V8.204C138.445 7.62533 139.08 7.14 139.864 6.748C140.648 6.356 141.572 6.16 142.636 6.16C143.718 6.16 144.67 6.40267 145.492 6.888C146.332 7.37333 146.985 8.092 147.452 9.044C147.937 9.97733 148.18 11.1253 148.18 12.488V20.3C148.18 20.5053 148.105 20.6733 147.956 20.804C147.825 20.9347 147.666 21 147.48 21H143.952C143.765 21 143.597 20.9347 143.448 20.804C143.317 20.6733 143.252 20.5053 143.252 20.3V12.656C143.252 11.7787 143.037 11.1067 142.608 10.64C142.197 10.1547 141.581 9.912 140.76 9.912C139.994 9.912 139.378 10.1547 138.912 10.64C138.464 11.1067 138.24 11.7787 138.24 12.656V20.3C138.24 20.5053 138.165 20.6733 138.016 20.804C137.885 20.9347 137.726 21 137.54 21H134.04ZM158.444 27.16C157.007 27.16 155.812 26.9733 154.86 26.6C153.927 26.2267 153.18 25.7787 152.62 25.256C152.079 24.7333 151.687 24.2107 151.444 23.688C151.202 23.184 151.071 22.7827 151.052 22.484C151.034 22.2787 151.099 22.1107 151.248 21.98C151.398 21.8493 151.575 21.784 151.78 21.784H155.336C155.504 21.784 155.644 21.8213 155.756 21.896C155.887 21.9893 155.99 22.1387 156.064 22.344C156.158 22.5493 156.279 22.764 156.428 22.988C156.596 23.212 156.82 23.3893 157.1 23.52C157.399 23.6693 157.8 23.744 158.304 23.744C158.864 23.744 159.331 23.6507 159.704 23.464C160.078 23.296 160.358 23.0067 160.544 22.596C160.731 22.204 160.824 21.672 160.824 21V19.124C160.395 19.5907 159.844 19.9733 159.172 20.272C158.5 20.552 157.688 20.692 156.736 20.692C155.784 20.692 154.944 20.552 154.216 20.272C153.488 19.992 152.882 19.572 152.396 19.012C151.911 18.452 151.528 17.7707 151.248 16.968C150.987 16.1653 150.828 15.2413 150.772 14.196C150.754 13.7107 150.754 13.2253 150.772 12.74C150.828 11.732 150.987 10.8267 151.248 10.024C151.51 9.22133 151.883 8.53067 152.368 7.952C152.872 7.37333 153.488 6.93467 154.216 6.636C154.944 6.31867 155.784 6.16 156.736 6.16C157.744 6.16 158.603 6.356 159.312 6.748C160.04 7.12133 160.638 7.59733 161.104 8.176V7.14C161.104 6.95333 161.17 6.79467 161.3 6.664C161.431 6.51467 161.599 6.44 161.804 6.44H165.024C165.23 6.44 165.398 6.51467 165.528 6.664C165.678 6.79467 165.752 6.95333 165.752 7.14V20.608C165.752 22.0267 165.463 23.2213 164.884 24.192C164.306 25.1627 163.475 25.9 162.392 26.404C161.31 26.908 159.994 27.16 158.444 27.16ZM158.248 17.052C158.846 17.052 159.331 16.9213 159.704 16.66C160.078 16.3987 160.348 16.0627 160.516 15.652C160.703 15.2413 160.806 14.8027 160.824 14.336C160.843 14.1307 160.852 13.8413 160.852 13.468C160.852 13.0947 160.843 12.8147 160.824 12.628C160.806 12.1427 160.703 11.6947 160.516 11.284C160.348 10.8733 160.078 10.5467 159.704 10.304C159.331 10.0427 158.846 9.912 158.248 9.912C157.632 9.912 157.138 10.0427 156.764 10.304C156.41 10.5653 156.148 10.92 155.98 11.368C155.831 11.816 155.738 12.3107 155.7 12.852C155.682 13.2627 155.682 13.6827 155.7 14.112C155.738 14.6533 155.831 15.148 155.98 15.596C156.148 16.044 156.41 16.3987 156.764 16.66C157.138 16.9213 157.632 17.052 158.248 17.052Z" fill="white"/>
<path d="M169.61 21C169.405 21 169.237 20.9347 169.106 20.804C168.976 20.6733 168.91 20.5053 168.91 20.3V16.744C168.91 16.5573 168.976 16.3987 169.106 16.268C169.237 16.1187 169.405 16.044 169.61 16.044H173.138C173.344 16.044 173.512 16.1187 173.642 16.268C173.792 16.3987 173.866 16.5573 173.866 16.744V20.3C173.866 20.5053 173.792 20.6733 173.642 20.804C173.512 20.9347 173.344 21 173.138 21H169.61Z" fill="#ED9902"/>
</svg>
